<svg width="300" height="200" viewBox="0 0 300 200" fill="none" xmlns="http://www.w3.org/2000/svg">
<rect width="300" height="200" rx="12" fill="white"/>
<path d="M131.373 112H138.404V103.492H143.502C146.666 103.48 149.174 102.689 151.025 101.119C152.877 99.5488 153.803 97.4688 153.803 94.8789C153.803 92.2539 152.895 90.1855 151.078 88.6738C149.262 87.1621 146.748 86.4062 143.537 86.4062H131.373V112ZM138.387 98.4824V91.5918H142.852C144.211 91.5918 145.201 91.8906 145.822 92.4883C146.443 93.0859 146.754 93.9414 146.754 95.0547C146.754 96.1445 146.443 96.9883 145.822 97.5859C145.201 98.1836 144.211 98.4824 142.852 98.4824H138.387ZM147.193 112H155.139L148.635 100.381L141.217 100.486L147.193 112ZM155.947 103.545C155.947 106.275 156.955 108.455 158.971 110.084C160.986 111.701 163.682 112.51 167.057 112.51C169.482 112.51 171.533 112.152 173.209 111.438C174.885 110.711 176.039 109.656 176.672 108.273L171.609 106.059C171.176 106.469 170.572 106.838 169.799 107.166C169.025 107.494 168.1 107.658 167.021 107.658C165.721 107.658 164.648 107.318 163.805 106.639C162.961 105.947 162.539 104.963 162.539 103.686V102.666C162.539 101.541 162.914 100.633 163.664 99.9414C164.426 99.2383 165.428 98.8867 166.67 98.8867C168.158 98.8867 169.172 99.1152 169.711 99.5723C170.25 100.029 170.52 100.65 170.52 101.436V101.189H160.447V105.039H177.182V102.771C177.193 100.1 176.262 97.9961 174.387 96.4609C172.523 94.9141 170.01 94.1406 166.846 94.1406C163.682 94.1406 161.074 94.9551 159.023 96.584C156.973 98.2012 155.947 100.357 155.947 103.053V103.545ZM178.904 99.8008C178.904 104.043 180.164 107.213 182.684 109.311C185.203 111.408 188.473 112.457 192.492 112.457C196.383 112.457 199.418 111.66 201.598 110.066C203.777 108.473 204.914 106.152 205.008 103.105L205.025 102.156H197.941L197.924 103.035C197.889 104.207 197.443 105.209 196.588 106.041C195.732 106.861 194.385 107.271 192.545 107.271C190.6 107.271 189.064 106.779 187.939 105.795C186.826 104.811 186.27 103.047 186.27 100.504V97.9023C186.27 95.6641 186.82 93.9883 187.922 92.875C189.023 91.75 190.553 91.1875 192.51 91.1875C194.15 91.1875 195.398 91.5508 196.254 92.2773C197.121 93.0039 197.666 94.0117 197.889 95.3008L197.941 96.3027H205.025L204.99 95.4414C204.604 92.1836 203.391 89.7871 201.352 88.252C199.324 86.7051 196.371 85.9316 192.492 85.9316C188.543 85.9316 185.291 86.9746 182.736 89.0605C180.182 91.1465 178.904 94.3281 178.904 98.6055V99.8008ZM207.592 112H214.412V101.963C214.729 101.307 215.227 100.727 215.906 100.223C216.598 99.7188 217.43 99.4668 218.402 99.4668C219.246 99.4668 219.879 99.6895 220.301 100.135C220.723 100.58 220.934 101.359 220.934 102.473V112H227.754V101.857C227.789 99.0918 227.174 97.1348 225.908 95.9863C224.654 94.8262 222.803 94.252 220.354 94.2637C218.889 94.252 217.646 94.5215 216.627 95.0723C215.619 95.6113 214.881 96.3027 214.412 97.1465V85.7207H207.592V112ZM230.443 106.902C230.443 108.66 231.123 109.996 232.482 110.91C233.854 111.824 235.588 112.281 237.686 112.281C239.314 112.281 240.768 112.018 242.045 111.49C243.322 110.963 244.143 110.365 244.506 109.697C244.553 110.131 244.623 110.559 244.717 110.98C244.822 111.402 244.945 111.742 245.086 112H251.854V111.736C251.572 111.303 251.35 110.758 251.186 110.102C251.033 109.434 250.957 108.736 250.957 108.01V100.293C250.957 98.1836 250.137 96.6367 248.496 95.6523C246.867 94.6562 244.553 94.1582 241.553 94.1582C238.588 94.1582 236.174 94.668 234.311 95.6875C232.459 96.6953 231.533 98.0723 231.533 99.8184V100.416H238.107V99.8887C238.107 99.3848 238.383 99.0273 238.934 98.8164C239.484 98.5938 240.223 98.4824 241.148 98.4824C242.18 98.4824 242.936 98.6172 243.416 98.8867C243.896 99.1445 244.137 99.5488 244.137 100.1V100.961L239.742 100.943C236.977 100.932 234.732 101.447 233.01 102.49C231.299 103.521 230.443 104.992 230.443 106.902ZM237.264 106.533C237.264 105.9 237.586 105.449 238.23 105.18C238.887 104.898 239.777 104.758 240.902 104.758L244.154 104.775V105.355C244.154 106.211 243.709 106.879 242.818 107.359C241.939 107.828 240.973 108.062 239.918 108.062C239.051 108.062 238.389 107.934 237.932 107.676C237.486 107.418 237.264 107.037 237.264 106.533ZM252.926 99.7832H266.725V94.6855H252.926V99.7832ZM255.861 105.848C255.861 108.203 256.523 109.891 257.848 110.91C259.184 111.93 260.941 112.439 263.121 112.439C263.988 112.439 264.721 112.387 265.318 112.281C265.916 112.176 266.361 112.053 266.654 111.912L266.584 107.166C266.35 107.26 266.086 107.342 265.793 107.412C265.512 107.482 265.184 107.518 264.809 107.518C264.164 107.518 263.637 107.33 263.227 106.955C262.816 106.568 262.611 105.865 262.611 104.846V89.6758H255.949V96.3203L255.861 96.6895V105.848Z" fill="black"/>
<mask id="mask0_3_2" style="mask-type:alpha" maskUnits="userSpaceOnUse" x="29" y="55" width="90" height="90">
<rect x="29" y="55" width="90" height="90" fill="#D9D9D9"/>
</mask>
<g mask="url(#mask0_3_2)">
<path d="M36.4999 118.75V66.2501C36.4999 65.1876 36.8599 64.2963 37.5799 63.5763C38.2974 62.8588 39.1874 62.5001 40.2499 62.5001H88.9999C90.0624 62.5001 90.9524 62.8588 91.6699 63.5763C92.3899 64.2963 92.7499 65.1876 92.7499 66.2501V100C92.7499 101.063 92.3899 101.953 91.6699 102.67C90.9524 103.39 90.0624 103.75 88.9999 103.75H51.4999L36.4999 118.75ZM55.2499 122.5C54.1874 122.5 53.2961 122.14 52.5761 121.42C51.8586 120.703 51.4999 119.813 51.4999 118.75V111.25H100.25V77.5001H107.75C108.812 77.5001 109.702 77.8588 110.42 78.5763C111.14 79.2963 111.5 80.1876 111.5 81.2501V137.5L96.4999 122.5H55.2499ZM85.2499 70.0001H43.9999V100.656L48.4061 96.2501H85.2499V70.0001Z" fill="#1C1B1F"/>
<path d="M85.2499 70.0001H43.9999V100.656L48.4061 96.2501H85.2499V70.0001Z" fill="#C62828"/>
</g>
<path d="M120.451 122.598C120.451 123.395 120.746 124.023 121.336 124.484C121.93 124.945 122.695 125.176 123.633 125.176C124.566 125.176 125.318 124.949 125.889 124.496C126.463 124.043 126.75 123.443 126.75 122.697C126.75 121.971 126.52 121.412 126.059 121.021C125.602 120.631 124.906 120.318 123.973 120.084C123.09 119.861 122.51 119.648 122.232 119.445C121.959 119.242 121.822 118.961 121.822 118.602C121.822 118.223 121.963 117.916 122.244 117.682C122.529 117.447 122.971 117.33 123.568 117.33C124.17 117.33 124.621 117.473 124.922 117.758C125.227 118.039 125.379 118.398 125.379 118.836V118.941H126.551V118.836C126.551 118.145 126.279 117.549 125.736 117.049C125.193 116.545 124.473 116.293 123.574 116.293C122.672 116.293 121.951 116.521 121.412 116.979C120.877 117.436 120.609 118.006 120.609 118.689C120.609 119.369 120.83 119.9 121.271 120.283C121.717 120.662 122.404 120.967 123.334 121.197C124.275 121.432 124.879 121.658 125.145 121.877C125.41 122.092 125.543 122.389 125.543 122.768C125.543 123.166 125.379 123.494 125.051 123.752C124.723 124.01 124.25 124.139 123.633 124.139C123.012 124.139 122.529 124.008 122.186 123.746C121.842 123.48 121.67 123.098 121.67 122.598V122.492H120.451V122.598ZM127.588 121.977C127.588 122.918 127.869 123.688 128.432 124.285C128.994 124.879 129.721 125.176 130.611 125.176C131.502 125.176 132.229 124.879 132.791 124.285C133.354 123.688 133.635 122.918 133.635 121.977V121.789C133.635 120.848 133.354 120.08 132.791 119.486C132.229 118.889 131.502 118.59 130.611 118.59C129.721 118.59 128.994 118.889 128.432 119.486C127.869 120.08 127.588 120.848 127.588 121.789V121.977ZM128.719 121.789C128.719 121.141 128.885 120.613 129.217 120.207C129.553 119.797 130.018 119.592 130.611 119.592C131.205 119.592 131.668 119.797 132 120.207C132.336 120.613 132.504 121.141 132.504 121.789V121.977C132.504 122.621 132.336 123.148 132 123.559C131.668 123.969 131.205 124.174 130.611 124.174C130.018 124.174 129.553 123.971 129.217 123.564C128.885 123.154 128.719 122.625 128.719 121.977V121.789ZM134.895 125H135.996V116H134.895V125ZM137.613 125H138.721V118.766H137.613V125ZM137.455 116.92C137.455 117.119 137.516 117.287 137.637 117.424C137.762 117.557 137.939 117.623 138.17 117.623C138.396 117.623 138.57 117.557 138.691 117.424C138.816 117.287 138.879 117.119 138.879 116.92C138.879 116.721 138.816 116.555 138.691 116.422C138.57 116.285 138.396 116.217 138.17 116.217C137.939 116.217 137.762 116.285 137.637 116.422C137.516 116.555 137.455 116.721 137.455 116.92ZM139.986 121.977C139.986 122.883 140.223 123.633 140.695 124.227C141.168 124.82 141.834 125.117 142.693 125.117C143.131 125.117 143.518 125.031 143.854 124.859C144.193 124.684 144.445 124.469 144.609 124.215H144.627L144.656 125H145.699V116H144.586V119.475C144.398 119.236 144.145 119.039 143.824 118.883C143.504 118.727 143.125 118.648 142.688 118.648C141.879 118.648 141.227 118.945 140.73 119.539C140.234 120.129 139.986 120.879 139.986 121.789V121.977ZM141.117 121.977V121.789C141.117 121.145 141.275 120.627 141.592 120.236C141.908 119.842 142.359 119.645 142.945 119.645C143.355 119.645 143.699 119.738 143.977 119.926C144.258 120.109 144.461 120.357 144.586 120.67V123.096C144.461 123.361 144.252 123.598 143.959 123.805C143.67 124.012 143.332 124.115 142.945 124.115C142.359 124.119 141.908 123.924 141.592 123.529C141.275 123.131 141.117 122.613 141.117 121.977ZM150.375 125H151.348V118.865C151.348 118.744 151.34 118.607 151.324 118.455C151.312 118.303 151.301 118.166 151.289 118.045H151.354C151.377 118.166 151.412 118.303 151.459 118.455C151.51 118.607 151.561 118.744 151.611 118.865L154.219 125H155.191L157.641 119.006C157.691 118.881 157.74 118.742 157.787 118.59C157.838 118.438 157.875 118.301 157.898 118.18H157.969C157.953 118.301 157.939 118.438 157.928 118.59C157.916 118.742 157.91 118.881 157.91 119.006V125H159.041V116.469H157.594L155.021 122.674C154.971 122.795 154.92 122.926 154.869 123.066C154.822 123.207 154.783 123.338 154.752 123.459H154.705C154.678 123.342 154.637 123.213 154.582 123.072C154.531 122.928 154.482 122.795 154.436 122.674L151.822 116.469H150.375V125ZM160.477 123.219C160.477 123.844 160.693 124.316 161.127 124.637C161.564 124.957 162.074 125.117 162.656 125.117C163.156 125.117 163.6 125.014 163.986 124.807C164.373 124.596 164.637 124.367 164.777 124.121C164.789 124.273 164.816 124.434 164.859 124.602C164.906 124.77 164.957 124.902 165.012 125H166.078V124.906C165.992 124.746 165.922 124.551 165.867 124.32C165.812 124.09 165.785 123.848 165.785 123.594V120.711C165.785 120.008 165.57 119.479 165.141 119.123C164.711 118.768 164.127 118.59 163.389 118.59C162.646 118.59 162.035 118.771 161.555 119.135C161.074 119.494 160.834 119.945 160.834 120.488V120.594H161.93V120.488C161.93 120.211 162.045 119.979 162.275 119.791C162.51 119.604 162.859 119.51 163.324 119.51C163.805 119.51 164.15 119.621 164.361 119.844C164.572 120.062 164.678 120.352 164.678 120.711V121.18H163.23C162.465 121.18 161.814 121.357 161.279 121.713C160.744 122.068 160.477 122.57 160.477 123.219ZM161.59 123.178C161.59 122.822 161.748 122.541 162.064 122.334C162.381 122.127 162.809 122.023 163.348 122.023H164.678V122.879C164.678 123.227 164.49 123.535 164.115 123.805C163.744 124.07 163.34 124.203 162.902 124.203C162.469 124.203 162.141 124.115 161.918 123.939C161.699 123.764 161.59 123.51 161.59 123.178ZM166.582 119.727H170.291V118.766H166.582V119.727ZM167.736 123.23C167.736 123.902 167.885 124.395 168.182 124.707C168.482 125.02 168.875 125.176 169.359 125.176C169.527 125.176 169.689 125.16 169.846 125.129C170.002 125.098 170.125 125.061 170.215 125.018V124.062C170.121 124.098 170.023 124.127 169.922 124.15C169.824 124.174 169.725 124.186 169.623 124.186C169.381 124.186 169.189 124.113 169.049 123.969C168.912 123.82 168.844 123.574 168.844 123.23V117.312H167.736V119.17V119.311V123.23ZM171.006 121.977C171.006 122.918 171.277 123.688 171.82 124.285C172.363 124.883 173.105 125.182 174.047 125.182C174.629 125.182 175.137 125.07 175.57 124.848C176.008 124.625 176.328 124.344 176.531 124.004L175.781 123.383C175.594 123.609 175.357 123.807 175.072 123.975C174.787 124.143 174.455 124.227 174.076 124.227C173.447 124.227 172.953 124.012 172.594 123.582C172.238 123.148 172.061 122.613 172.061 121.977V121.789C172.061 121.148 172.221 120.609 172.541 120.172C172.865 119.734 173.303 119.516 173.854 119.516C174.443 119.516 174.867 119.676 175.125 119.996C175.387 120.312 175.518 120.746 175.518 121.297H171.68V122.176H176.613V121.684C176.613 120.719 176.369 119.963 175.881 119.416C175.393 118.865 174.729 118.59 173.889 118.59C173.049 118.59 172.357 118.889 171.814 119.486C171.275 120.08 171.006 120.848 171.006 121.789V121.977ZM177.75 125H178.857V120.746C178.986 120.465 179.186 120.23 179.455 120.043C179.729 119.852 180.037 119.756 180.381 119.756C180.486 119.756 180.582 119.762 180.668 119.773C180.754 119.781 180.861 119.799 180.99 119.826V118.66C180.932 118.641 180.854 118.625 180.756 118.613C180.662 118.598 180.557 118.59 180.439 118.59C180.084 118.59 179.768 118.686 179.49 118.877C179.213 119.064 178.994 119.285 178.834 119.539H178.811L178.781 118.766H177.75V125ZM181.945 125H183.053V118.766H181.945V125ZM181.787 116.92C181.787 117.119 181.848 117.287 181.969 117.424C182.094 117.557 182.271 117.623 182.502 117.623C182.729 117.623 182.902 117.557 183.023 117.424C183.148 117.287 183.211 117.119 183.211 116.92C183.211 116.721 183.148 116.555 183.023 116.422C182.902 116.285 182.729 116.217 182.502 116.217C182.271 116.217 182.094 116.285 181.969 116.422C181.848 116.555 181.787 116.721 181.787 116.92ZM184.359 123.219C184.359 123.844 184.576 124.316 185.01 124.637C185.447 124.957 185.957 125.117 186.539 125.117C187.039 125.117 187.482 125.014 187.869 124.807C188.256 124.596 188.52 124.367 188.66 124.121C188.672 124.273 188.699 124.434 188.742 124.602C188.789 124.77 188.84 124.902 188.895 125H189.961V124.906C189.875 124.746 189.805 124.551 189.75 124.32C189.695 124.09 189.668 123.848 189.668 123.594V120.711C189.668 120.008 189.453 119.479 189.023 119.123C188.594 118.768 188.01 118.59 187.271 118.59C186.529 118.59 185.918 118.771 185.438 119.135C184.957 119.494 184.717 119.945 184.717 120.488V120.594H185.812V120.488C185.812 120.211 185.928 119.979 186.158 119.791C186.393 119.604 186.742 119.51 187.207 119.51C187.688 119.51 188.033 119.621 188.244 119.844C188.455 120.062 188.561 120.352 188.561 120.711V121.18H187.113C186.348 121.18 185.697 121.357 185.162 121.713C184.627 122.068 184.359 122.57 184.359 123.219ZM185.473 123.178C185.473 122.822 185.631 122.541 185.947 122.334C186.264 122.127 186.691 122.023 187.23 122.023H188.561V122.879C188.561 123.227 188.373 123.535 187.998 123.805C187.627 124.07 187.223 124.203 186.785 124.203C186.352 124.203 186.023 124.115 185.801 123.939C185.582 123.764 185.473 123.51 185.473 123.178ZM191.273 125H192.375V116H191.273V125ZM196.945 121.883C196.945 122.98 197.252 123.805 197.865 124.355C198.482 124.902 199.229 125.176 200.104 125.176C200.979 125.176 201.725 124.902 202.342 124.355C202.959 123.805 203.266 122.98 203.262 121.883V116.469H202.125V121.883C202.125 122.641 201.934 123.205 201.551 123.576C201.168 123.947 200.686 124.133 200.104 124.133C199.518 124.133 199.033 123.947 198.65 123.576C198.271 123.205 198.082 122.641 198.082 121.883V116.469H196.945V121.883ZM205.002 125H206.139V116.469H205.002V125ZM210.914 125H212.051V121.689H213.721C214.666 121.689 215.393 121.451 215.9 120.975C216.412 120.494 216.668 119.857 216.668 119.064C216.668 118.275 216.412 117.646 215.9 117.178C215.393 116.705 214.666 116.469 213.721 116.469H210.914V125ZM212.051 120.682V117.477H213.721C214.385 117.477 214.852 117.627 215.121 117.928C215.395 118.229 215.531 118.607 215.531 119.064C215.531 119.525 215.395 119.91 215.121 120.219C214.852 120.527 214.385 120.682 213.721 120.682H212.051ZM215.777 125H217.102L214.916 121.074L213.668 121.062L215.777 125ZM217.717 121.977C217.717 122.918 217.988 123.688 218.531 124.285C219.074 124.883 219.816 125.182 220.758 125.182C221.34 125.182 221.848 125.07 222.281 124.848C222.719 124.625 223.039 124.344 223.242 124.004L222.492 123.383C222.305 123.609 222.068 123.807 221.783 123.975C221.498 124.143 221.166 124.227 220.787 124.227C220.158 124.227 219.664 124.012 219.305 123.582C218.949 123.148 218.771 122.613 218.771 121.977V121.789C218.771 121.148 218.932 120.609 219.252 120.172C219.576 119.734 220.014 119.516 220.564 119.516C221.154 119.516 221.578 119.676 221.836 119.996C222.098 120.312 222.229 120.746 222.229 121.297H218.391V122.176H223.324V121.684C223.324 120.719 223.08 119.963 222.592 119.416C222.104 118.865 221.439 118.59 220.6 118.59C219.76 118.59 219.068 118.889 218.525 119.486C217.986 120.08 217.717 120.848 217.717 121.789V121.977ZM223.488 118.766L225.896 125H226.957L229.4 118.766H228.281L226.717 122.973C226.654 123.129 226.605 123.279 226.57 123.424C226.535 123.564 226.504 123.713 226.477 123.869H226.441C226.418 123.713 226.387 123.564 226.348 123.424C226.309 123.283 226.26 123.133 226.201 122.973L224.643 118.766H223.488ZM229.623 121.977C229.623 122.918 229.904 123.688 230.467 124.285C231.029 124.879 231.756 125.176 232.646 125.176C233.537 125.176 234.264 124.879 234.826 124.285C235.389 123.688 235.67 122.918 235.67 121.977V121.789C235.67 120.848 235.389 120.08 234.826 119.486C234.264 118.889 233.537 118.59 232.646 118.59C231.756 118.59 231.029 118.889 230.467 119.486C229.904 120.08 229.623 120.848 229.623 121.789V121.977ZM230.754 121.789C230.754 121.141 230.92 120.613 231.252 120.207C231.588 119.797 232.053 119.592 232.646 119.592C233.24 119.592 233.703 119.797 234.035 120.207C234.371 120.613 234.539 121.141 234.539 121.789V121.977C234.539 122.621 234.371 123.148 234.035 123.559C233.703 123.969 233.24 124.174 232.646 124.174C232.053 124.174 231.588 123.971 231.252 123.564C230.92 123.154 230.754 122.625 230.754 121.977V121.789ZM236.93 125H238.031V116H236.93V125ZM238.84 119.727H242.549V118.766H238.84V119.727ZM239.994 123.23C239.994 123.902 240.143 124.395 240.439 124.707C240.74 125.02 241.133 125.176 241.617 125.176C241.785 125.176 241.947 125.16 242.104 125.129C242.26 125.098 242.383 125.061 242.473 125.018V124.062C242.379 124.098 242.281 124.127 242.18 124.15C242.082 124.174 241.982 124.186 241.881 124.186C241.639 124.186 241.447 124.113 241.307 123.969C241.17 123.82 241.102 123.574 241.102 123.23V117.312H239.994V119.17V119.311V123.23ZM246.316 120.957C246.316 122.305 246.668 123.346 247.371 124.08C248.074 124.811 248.941 125.176 249.973 125.176C250.992 125.176 251.785 124.906 252.352 124.367C252.922 123.828 253.236 123.107 253.295 122.205L253.301 122.111H252.141L252.135 122.217C252.104 122.682 251.912 123.117 251.561 123.523C251.213 123.93 250.684 124.133 249.973 124.133C249.238 124.133 248.639 123.877 248.174 123.365C247.709 122.85 247.477 122.047 247.477 120.957V120.512C247.477 119.473 247.707 118.684 248.168 118.145C248.633 117.605 249.234 117.336 249.973 117.336C250.664 117.336 251.182 117.527 251.525 117.91C251.869 118.289 252.072 118.74 252.135 119.264L252.141 119.357H253.301L253.289 119.264C253.195 118.338 252.879 117.611 252.34 117.084C251.805 116.557 251.016 116.293 249.973 116.293C248.941 116.293 248.074 116.662 247.371 117.4C246.668 118.135 246.316 119.172 246.316 120.512V120.957ZM254.52 125H255.621V116H254.52V125ZM257.238 125H258.346V118.766H257.238V125ZM257.08 116.92C257.08 117.119 257.141 117.287 257.262 117.424C257.387 117.557 257.564 117.623 257.795 117.623C258.021 117.623 258.195 117.557 258.316 117.424C258.441 117.287 258.504 117.119 258.504 116.92C258.504 116.721 258.441 116.555 258.316 116.422C258.195 116.285 258.021 116.217 257.795 116.217C257.564 116.217 257.387 116.285 257.262 116.422C257.141 116.555 257.08 116.721 257.08 116.92ZM259.635 121.977C259.635 122.918 259.906 123.688 260.449 124.285C260.992 124.883 261.734 125.182 262.676 125.182C263.258 125.182 263.766 125.07 264.199 124.848C264.637 124.625 264.957 124.344 265.16 124.004L264.41 123.383C264.223 123.609 263.986 123.807 263.701 123.975C263.416 124.143 263.084 124.227 262.705 124.227C262.076 124.227 261.582 124.012 261.223 123.582C260.867 123.148 260.689 122.613 260.689 121.977V121.789C260.689 121.148 260.85 120.609 261.17 120.172C261.494 119.734 261.932 119.516 262.482 119.516C263.072 119.516 263.496 119.676 263.754 119.996C264.016 120.312 264.146 120.746 264.146 121.297H260.309V122.176H265.242V121.684C265.242 120.719 264.998 119.963 264.51 119.416C264.021 118.865 263.357 118.59 262.518 118.59C261.678 118.59 260.986 118.889 260.443 119.486C259.904 120.08 259.635 120.848 259.635 121.789V121.977ZM266.379 125H267.486V120.699C267.639 120.395 267.861 120.145 268.154 119.949C268.451 119.754 268.771 119.656 269.115 119.656C269.541 119.656 269.869 119.75 270.1 119.938C270.334 120.125 270.451 120.473 270.451 120.98V125H271.559V121.033C271.559 120.131 271.361 119.508 270.967 119.164C270.576 118.816 270.07 118.643 269.449 118.643C269.023 118.643 268.635 118.73 268.283 118.906C267.936 119.082 267.664 119.307 267.469 119.58H267.439L267.41 118.766H266.379V125ZM272.309 119.727H276.018V118.766H272.309V119.727ZM273.463 123.23C273.463 123.902 273.611 124.395 273.908 124.707C274.209 125.02 274.602 125.176 275.086 125.176C275.254 125.176 275.416 125.16 275.572 125.129C275.729 125.098 275.852 125.061 275.941 125.018V124.062C275.848 124.098 275.75 124.127 275.648 124.15C275.551 124.174 275.451 124.186 275.35 124.186C275.107 124.186 274.916 124.113 274.775 123.969C274.639 123.82 274.57 123.574 274.57 123.23V117.312H273.463V119.17V119.311V123.23Z" fill="black"/>
</svg>
